<svg xmlns="http://www.w3.org/2000/svg" viewBox="0 0 900 512">
<path d="M291 16.687C277.073 19 261.884 24.48 260.085 27.842c-2.203 4.115-.625 6.047 30.312 37.122 17.269 17.345 32.106 32.951 32.972 34.681C330.676 114.244 320.14 131 303.652 131c-9.827 0-10.922-.844-44.325-34.202-38.456-38.405-37.369-37.973-44.137-17.561-21.435 64.642 29.92 129.631 96.956 122.695 5.03-.52 11.502-1.561 14.382-2.313l5.237-1.368 27.361 27.375 27.361 27.375 30.256-30.244L447 192.513l-27.377-27.507-27.377-27.506 1.343-5c12.179-45.309-13.834-94.802-58.239-110.808-13.149-4.739-32.676-6.943-44.35-5.005m163.317 3.753c-6.742 1.534-14.697 4.748-15.677 6.333-1.169 1.892 2.004 3.159 14.418 5.757 23.732 4.967 42.573 12.683 55.777 22.843 21.525 16.563 29.371 38.389 20.277 56.404-4.094 8.112-4.035 11.861.277 17.51l3.389 4.44-70.188 70.183-70.188 70.183 16.549 16.743 16.549 16.742 70.533-70.32 70.534-70.32 2.966 3.124c5.696 5.998 11.581 8.149 20.304 7.42 9.348-.782 13.161 1.213 32.76 17.138l12.161 9.88-3.803 4.145c-8.817 9.61-5.326 23.674 6.545 26.369 8.246 1.872 10.213.583 31.807-20.853 23.153-22.983 24.099-24.253 23.495-31.541-1.17-14.098-16.019-19.109-26.785-9.039-5.838 5.46-5.177 5.55-9.835-1.331-6.136-9.064-7.445-12.194-7.324-17.524.335-14.906-17.901-44.282-41.162-66.305-36.649-34.699-71.593-56.449-106.196-66.098-11.35-3.165-37.041-4.19-47.183-1.883m22.931 262.808-30.244 30.244 30.481 30.504 30.482 30.504-1.424 4.71c-13.423 44.416 15.134 97.144 60.779 112.222 27.069 8.942 73.678 2.067 73.678-10.868 0-1.277-11.27-13.311-31.397-33.528-17.269-17.345-32.106-32.951-32.972-34.681C569.324 397.756 579.86 381 596.348 381c9.827 0 10.922.844 44.325 34.202 38.44 38.389 37.374 37.963 44.115 17.624 19.116-57.678-18.541-116.54-78.525-122.746-9.952-1.03-24.072-.029-32.763 2.322l-5 1.353-30.504-30.376-30.504-30.375-30.244 30.244m-104.954 2.224c-2.596 1.129-62.173 53.968-150.95 133.879C208.789 430.652 207 432.99 207 438.097c0 5.128 2.159 7.73 26.257 31.653l23.42 23.25h4.58c6.948 0 5.624 1.242 42.534-39.882 19.064-21.24 46.148-51.421 60.186-67.07 14.037-15.649 31.033-34.549 37.767-42 19.322-21.38 19.29-22.287-1.551-43.312-16.873-17.022-19.965-18.714-27.899-15.264" fill-rule="evenodd"/></svg>